<?xml version="1.0" encoding="UTF-8" standalone="no"?>
<!-- Created with Inkscape (http://www.inkscape.org/) -->

<svg
   xmlns:dc="http://purl.org/dc/elements/1.1/"
   xmlns:cc="http://creativecommons.org/ns#"
   xmlns:rdf="http://www.w3.org/1999/02/22-rdf-syntax-ns#"
   xmlns:svg="http://www.w3.org/2000/svg"
   xmlns="http://www.w3.org/2000/svg"
   xmlns:sodipodi="http://sodipodi.sourceforge.net/DTD/sodipodi-0.dtd"
   xmlns:inkscape="http://www.inkscape.org/namespaces/inkscape"
   version="1.1"
   id="svg66"
   width="363.73334"
   height="363.73334"
   viewBox="0 0 363.73334 363.73334"
   sodipodi:docname="tri.svg"
   inkscape:version="0.92.2 (5c3e80d, 2017-08-06)">
  <metadata
     id="metadata72">
    <rdf:RDF>
      <cc:Work
         rdf:about="">
        <dc:format>image/svg+xml</dc:format>
        <dc:type
           rdf:resource="http://purl.org/dc/dcmitype/StillImage" />
        <dc:title></dc:title>
      </cc:Work>
    </rdf:RDF>
  </metadata>
  <defs
     id="defs70" />
  <sodipodi:namedview
     pagecolor="#ffffff"
     bordercolor="#666666"
     borderopacity="1"
     objecttolerance="10"
     gridtolerance="10"
     guidetolerance="10"
     inkscape:pageopacity="0"
     inkscape:pageshadow="2"
     inkscape:window-width="1920"
     inkscape:window-height="1011"
     id="namedview68"
     showgrid="false"
     inkscape:zoom="2.2434017"
     inkscape:cx="74.886275"
     inkscape:cy="181.86667"
     inkscape:window-x="0"
     inkscape:window-y="33"
     inkscape:window-maximized="1"
     inkscape:current-layer="svg66" />
  <path
     style="fill:#000000;stroke-width:1.06666672"
     d="m 330.40393,63.990494 c 3.70757,2.03892 5.81844,5.56062 5.84295,9.74817 0.0202,3.452751 -10.80877,22.644221 -73.12806,129.599996 -40.23348,69.05091 -74.56106,126.86711 -76.2835,128.48044 -4.33826,4.06345 -10.39119,4.06345 -14.72945,0 C 170.38343,330.20577 136.05585,272.38957 95.822367,203.33866 33.503077,96.382885 22.674097,77.191415 22.694307,73.738664 c 0.0252,-4.29771 2.20572,-7.83411 6.03949,-9.79472 3.28495,-1.67994 298.613543,-1.63437 301.670133,0.0466 z M 57.582347,91.360695 C 78.696077,128.09892 179.07438,299.54146 179.47059,299.54146 c 0.39622,0 100.77451,-171.44254 121.88825,-208.180765 l 2.95491,-5.14159 H 179.47059 54.627427 Z"
     id="path76"
     inkscape:connector-curvature="0" />
</svg>
